<svg xmlns="http://www.w3.org/2000/svg" viewBox="0 0 1200 190" data-masthead-art="independent-journal"><g fill="#28241f"><path d="M25.53 51.40L25.53 101.78L17.32 102.39L17.32 103L39.59 103L39.59 102.39L31.38 101.78L31.38 51.40L42.48 51.40Q44.30 51.40 45.10 51.97Q45.90 52.54 46.58 54.28L46.58 54.28L51.30 65.99L51.90 65.84L50.23 49.34L49.78 49.34Q48.10 50.10 46.93 50.33Q45.75 50.56 43.92 50.56L43.92 50.56L14.66 50.56Q12.84 50.56 11.66 50.33Q10.48 50.10 8.81 49.34L8.81 49.34L8.36 49.34L5.39 65.84L6.00 65.99L11.24 54.28Q12.00 52.54 12.84 51.97Q13.68 51.40 15.50 51.40L15.50 51.40L25.53 51.40ZM113.12 51.17L106.89 51.78L106.89 101.78L113.12 102.39L113.12 103L94.43 103L94.43 102.39L101.04 101.78L101.04 76.02L75.73 76.02L75.73 101.78L82.34 102.39L82.34 103L63.65 103L63.65 102.39L69.88 101.78L69.88 51.78L63.65 51.17L63.65 50.56L82.34 50.56L82.34 51.17L75.73 51.78L75.73 74.80L101.04 74.80L101.04 51.78L94.43 51.17L94.43 50.56L113.12 50.56L113.12 51.17ZM164.01 86.96L164.84 87.04L162.94 103L125.70 103L125.70 102.39L131.94 101.78L131.94 51.78L125.70 51.17L125.70 50.56L163.02 50.56L164.08 64.85L163.32 64.92L159.07 54.28Q158.38 52.54 157.59 52.00Q156.79 51.47 154.96 51.47L154.96 51.47L137.79 51.47L137.79 74.80L149.04 74.80Q150.86 74.80 151.62 74.20Q152.38 73.59 152.68 71.84L152.68 71.84L153.98 65.68L154.89 65.68L154.89 85.14L153.98 85.14L152.68 78.98Q152.38 77.24 151.62 76.63Q150.86 76.02 149.04 76.02L149.04 76.02L137.79 76.02L137.79 102.09L154.81 102.09Q156.64 102.09 157.47 101.52Q158.31 100.95 158.99 99.28L158.99 99.28L164.01 86.96ZM203.61 51.17L203.61 50.56L221.92 50.56L221.92 51.17L215.69 51.78L215.69 101.78L221.92 102.39L221.92 103L203.61 103L203.61 102.39L209.84 101.78L209.84 51.78L203.61 51.17ZM267.87 50.56L286.03 50.56L286.03 51.17L280.56 51.78Q278.74 52.00 278.13 52.69Q277.52 53.37 277.52 55.20L277.52 55.20L277.52 104.22L276.76 104.22L242.64 55.80L242.33 55.80L242.33 98.36Q242.33 100.19 242.79 100.91Q243.24 101.63 244.61 101.78L244.61 101.78L250.01 102.39L250.01 103L233.36 103L233.36 102.39L238.84 101.78Q240.20 101.63 240.66 100.91Q241.12 100.19 241.12 98.36L241.12 98.36L241.12 54.13L240.81 53.68Q239.75 52.16 238.80 51.66Q237.85 51.17 236.02 51.17L236.02 51.17L234.73 51.17L234.73 50.56L246.06 50.56L276.00 92.51L276.30 92.51L276.30 55.20Q276.30 53.37 275.85 52.61Q275.39 51.85 274.02 51.78L274.02 51.78L267.87 51.17L267.87 50.56ZM333.19 54.59Q337.83 57.86 340.41 63.56Q343.00 69.26 343.00 76.48L343.00 76.48Q343.00 83.70 340.41 89.62Q337.83 95.55 333.19 98.90L333.19 98.90Q330.23 101.02 326.39 102.01Q322.55 103 317.00 103L317.00 103L296.79 103L296.79 102.39L303.02 101.78L303.02 51.78L296.79 51.17L296.79 50.56L317.00 50.56Q327.34 50.56 333.19 54.59L333.19 54.59ZM330.46 97.60Q332.89 94.49 334.29 88.75Q335.70 83.01 335.70 76.10L335.70 76.10Q335.70 69.33 334.37 64.16Q333.04 59.00 330.46 55.96L330.46 55.96Q328.33 53.45 325.21 52.46Q322.10 51.47 316.32 51.47L316.32 51.47L308.87 51.47L308.87 102.09L316.32 102.09Q322.40 102.09 325.44 101.10Q328.48 100.11 330.46 97.60L330.46 97.60ZM395.10 86.96L395.93 87.04L394.03 103L356.79 103L356.79 102.39L363.02 101.78L363.02 51.78L356.79 51.17L356.79 50.56L394.11 50.56L395.17 64.85L394.41 64.92L390.16 54.28Q389.47 52.54 388.67 52.00Q387.88 51.47 386.05 51.47L386.05 51.47L368.88 51.47L368.88 74.80L380.12 74.80Q381.95 74.80 382.71 74.20Q383.47 73.59 383.77 71.84L383.77 71.84L385.06 65.68L385.98 65.68L385.98 85.14L385.06 85.14L383.77 78.98Q383.47 77.24 382.71 76.63Q381.95 76.02 380.12 76.02L380.12 76.02L368.88 76.02L368.88 102.09L385.90 102.09Q387.72 102.09 388.56 101.52Q389.40 100.95 390.08 99.28L390.08 99.28L395.10 86.96ZM429.18 80.20L422.04 80.20L422.04 101.78L429.49 102.39L429.49 103L409.96 103L409.96 102.39L416.19 101.78L416.19 51.78L409.96 51.17L409.96 50.56L429.18 50.56Q438.08 50.56 442.83 54.36Q447.58 58.16 447.58 65.08L447.58 65.08Q447.58 72.45 442.86 76.32Q438.15 80.20 429.18 80.20L429.18 80.20ZM428.96 51.47L422.04 51.47L422.04 79.29L428.96 79.29Q435.11 79.29 437.92 75.79Q440.74 72.30 440.74 64.70L440.74 64.70Q440.74 58.39 438.19 54.93Q435.64 51.47 428.96 51.47L428.96 51.47ZM497.93 86.96L498.76 87.04L496.86 103L459.62 103L459.62 102.39L465.86 101.78L465.86 51.78L459.62 51.17L459.62 50.56L496.94 50.56L498.00 64.85L497.24 64.92L492.99 54.28Q492.30 52.54 491.51 52.00Q490.71 51.47 488.88 51.47L488.88 51.47L471.71 51.47L471.71 74.80L482.96 74.80Q484.78 74.80 485.54 74.20Q486.30 73.59 486.60 71.84L486.60 71.84L487.90 65.68L488.81 65.68L488.81 85.14L487.90 85.14L486.60 78.98Q486.30 77.24 485.54 76.63Q484.78 76.02 482.96 76.02L482.96 76.02L471.71 76.02L471.71 102.09L488.73 102.09Q490.56 102.09 491.39 101.52Q492.23 100.95 492.91 99.28L492.91 99.28L497.93 86.96ZM546.15 50.56L564.32 50.56L564.32 51.17L558.84 51.78Q557.02 52.00 556.41 52.69Q555.80 53.37 555.80 55.20L555.80 55.20L555.80 104.22L555.04 104.22L520.92 55.80L520.62 55.80L520.62 98.36Q520.62 100.19 521.07 100.91Q521.53 101.63 522.90 101.78L522.90 101.78L528.29 102.39L528.29 103L511.65 103L511.65 102.39L517.12 101.78Q518.49 101.63 518.94 100.91Q519.40 100.19 519.40 98.36L519.40 98.36L519.40 54.13L519.10 53.68Q518.03 52.16 517.08 51.66Q516.13 51.17 514.31 51.17L514.31 51.17L513.02 51.17L513.02 50.56L524.34 50.56L554.28 92.51L554.59 92.51L554.59 55.20Q554.59 53.37 554.13 52.61Q553.68 51.85 552.31 51.78L552.31 51.78L546.15 51.17L546.15 50.56ZM611.48 54.59Q616.11 57.86 618.70 63.56Q621.28 69.26 621.28 76.48L621.28 76.48Q621.28 83.70 618.70 89.62Q616.11 95.55 611.48 98.90L611.48 98.90Q608.51 101.02 604.67 102.01Q600.84 103 595.29 103L595.29 103L575.07 103L575.07 102.39L581.30 101.78L581.30 51.78L575.07 51.17L575.07 50.56L595.29 50.56Q605.62 50.56 611.48 54.59L611.48 54.59ZM608.74 97.60Q611.17 94.49 612.58 88.75Q613.98 83.01 613.98 76.10L613.98 76.10Q613.98 69.33 612.65 64.16Q611.32 59.00 608.74 55.96L608.74 55.96Q606.61 53.45 603.50 52.46Q600.38 51.47 594.60 51.47L594.60 51.47L587.16 51.47L587.16 102.09L594.60 102.09Q600.68 102.09 603.72 101.10Q606.76 100.11 608.74 97.60L608.74 97.60ZM673.38 86.96L674.22 87.04L672.32 103L635.08 103L635.08 102.39L641.31 101.78L641.31 51.78L635.08 51.17L635.08 50.56L672.39 50.56L673.46 64.85L672.70 64.92L668.44 54.28Q667.76 52.54 666.96 52.00Q666.16 51.47 664.34 51.47L664.34 51.47L647.16 51.47L647.16 74.80L658.41 74.80Q660.23 74.80 660.99 74.20Q661.75 73.59 662.06 71.84L662.06 71.84L663.35 65.68L664.26 65.68L664.26 85.14L663.35 85.14L662.06 78.98Q661.75 77.24 660.99 76.63Q660.23 76.02 658.41 76.02L658.41 76.02L647.16 76.02L647.16 102.09L664.18 102.09Q666.01 102.09 666.84 101.52Q667.68 100.95 668.36 99.28L668.36 99.28L673.38 86.96ZM721.60 50.56L739.77 50.56L739.77 51.17L734.30 51.78Q732.47 52.00 731.86 52.69Q731.26 53.37 731.26 55.20L731.26 55.20L731.26 104.22L730.50 104.22L696.37 55.80L696.07 55.80L696.07 98.36Q696.07 100.19 696.52 100.91Q696.98 101.63 698.35 101.78L698.35 101.78L703.74 102.39L703.74 103L687.10 103L687.10 102.39L692.57 101.78Q693.94 101.63 694.40 100.91Q694.85 100.19 694.85 98.36L694.85 98.36L694.85 54.13L694.55 53.68Q693.48 52.16 692.53 51.66Q691.58 51.17 689.76 51.17L689.76 51.17L688.47 51.17L688.47 50.56L699.79 50.56L729.74 92.51L730.04 92.51L730.04 55.20Q730.04 53.37 729.58 52.61Q729.13 51.85 727.76 51.78L727.76 51.78L721.60 51.17L721.60 50.56ZM769.45 51.40L769.45 101.78L761.24 102.39L761.24 103L783.51 103L783.51 102.39L775.30 101.78L775.30 51.40L786.40 51.40Q788.22 51.40 789.02 51.97Q789.82 52.54 790.50 54.28L790.50 54.28L795.21 65.99L795.82 65.84L794.15 49.34L793.69 49.34Q792.02 50.10 790.84 50.33Q789.66 50.56 787.84 50.56L787.84 50.56L758.58 50.56Q756.76 50.56 755.58 50.33Q754.40 50.10 752.73 49.34L752.73 49.34L752.27 49.34L749.31 65.84L749.92 65.99L755.16 54.28Q755.92 52.54 756.76 51.97Q757.59 51.40 759.42 51.40L759.42 51.40L769.45 51.40ZM839.45 104.52Q839.45 109.31 837.97 112.20Q836.48 115.08 834.05 115.08L834.05 115.08Q831.47 115.08 831.47 112.42L831.47 112.42L831.54 110.22Q831.54 108.62 830.71 107.71Q829.87 106.80 828.35 106.80L828.35 106.80Q826.91 106.80 826.03 107.71Q825.16 108.62 825.16 110.14L825.16 110.14Q825.16 112.65 827.52 114.32Q829.87 116.00 833.44 116.00L833.44 116.00Q836.26 116.00 838.76 114.74Q841.27 113.49 842.79 111.28L842.79 111.28Q844.16 109.31 844.73 106.46Q845.30 103.61 845.30 98.67L845.30 98.67L845.30 51.78L851.53 51.17L851.53 50.56L833.22 50.56L833.22 51.17L839.45 51.78L839.45 104.52ZM888.74 49.34Q895.35 49.34 900.86 52.99Q906.37 56.64 909.52 62.91Q912.68 69.18 912.68 76.78L912.68 76.78Q912.68 84.38 909.52 90.65Q906.37 96.92 900.86 100.57Q895.35 104.22 888.74 104.22L888.74 104.22Q882.12 104.22 876.61 100.57Q871.10 96.92 867.95 90.65Q864.80 84.38 864.80 76.78L864.80 76.78Q864.80 69.18 867.95 62.91Q871.10 56.64 876.61 52.99Q882.12 49.34 888.74 49.34L888.74 49.34ZM872.09 76.78Q872.09 89.47 876.42 96.35Q880.76 103.23 888.74 103.23L888.74 103.23Q896.72 103.23 901.05 96.35Q905.38 89.47 905.38 76.78L905.38 76.78Q905.38 64.09 901.05 57.17Q896.72 50.26 888.74 50.26L888.74 50.26Q880.76 50.26 876.42 57.17Q872.09 64.09 872.09 76.78L872.09 76.78ZM963.86 55.20Q963.86 53.37 963.41 52.69Q962.95 52.00 961.58 51.78L961.58 51.78L956.19 51.17L956.19 50.56L972.83 50.56L972.83 51.17L967.36 51.78Q965.99 52.00 965.54 52.69Q965.08 53.37 965.08 55.20L965.08 55.20L965.08 84.38Q965.08 89.17 964.36 92.36Q963.64 95.55 962.12 97.83L962.12 97.83Q960.06 100.80 956.49 102.51Q952.92 104.22 948.59 104.22L948.59 104.22Q945.09 104.22 941.67 103.08Q938.25 101.94 935.97 99.96L935.97 99.96Q933.62 97.91 932.63 94.72Q931.64 91.52 931.64 85.90L931.64 85.90L931.64 51.78L925.41 51.17L925.41 50.56L944.10 50.56L944.10 51.17L937.49 51.78L937.49 88.41Q937.49 93.96 938.52 96.92Q939.54 99.88 941.98 101.33L941.98 101.33Q943.27 102.09 945.17 102.54Q947.07 103 949.12 103L949.12 103Q952.92 103 956.11 101.48Q959.30 99.96 961.20 97.15L961.20 97.15Q962.65 95.02 963.26 92.17Q963.86 89.32 963.86 84.76L963.86 84.76L963.86 55.20ZM1028.28 102.39L1029.34 102.39L1029.34 103L1021.51 103Q1019.69 103 1018.78 102.47Q1017.86 101.94 1016.88 100.42L1016.88 100.42L1005.25 81.64Q1004.18 79.90 1003.46 79.48Q1002.74 79.06 1000.92 79.06L1000.92 79.06L995.29 79.06L995.29 101.78L1001.90 102.39L1001.90 103L983.21 103L983.21 102.39L989.44 101.78L989.44 51.78L983.21 51.17L983.21 50.56L1002.44 50.56Q1011.40 50.56 1016.12 54.17Q1020.83 57.78 1020.83 64.62L1020.83 64.62Q1020.83 69.94 1017.94 73.36Q1015.05 76.78 1009.58 78.07L1009.58 78.07L1009.66 78.07L1023.56 99.81Q1024.55 101.33 1025.50 101.86Q1026.45 102.39 1028.28 102.39L1028.28 102.39ZM1002.21 51.47L995.29 51.47L995.29 77.92L1002.21 77.92Q1008.29 77.92 1011.21 74.69Q1014.14 71.46 1014.14 64.77L1014.14 64.77Q1014.14 58.01 1011.18 54.74Q1008.21 51.47 1002.21 51.47L1002.21 51.47ZM1069.74 50.56L1087.90 50.56L1087.90 51.17L1082.43 51.78Q1080.60 52.00 1080.00 52.69Q1079.39 53.37 1079.39 55.20L1079.39 55.20L1079.39 104.22L1078.63 104.22L1044.50 55.80L1044.20 55.80L1044.20 98.36Q1044.20 100.19 1044.66 100.91Q1045.11 101.63 1046.48 101.78L1046.48 101.78L1051.88 102.39L1051.88 103L1035.23 103L1035.23 102.39L1040.70 101.78Q1042.07 101.63 1042.53 100.91Q1042.98 100.19 1042.98 98.36L1042.98 98.36L1042.98 54.13L1042.68 53.68Q1041.62 52.16 1040.67 51.66Q1039.72 51.17 1037.89 51.17L1037.89 51.17L1036.60 51.17L1036.60 50.56L1047.92 50.56L1077.87 92.51L1078.17 92.51L1078.17 55.20Q1078.17 53.37 1077.72 52.61Q1077.26 51.85 1075.89 51.78L1075.89 51.78L1069.74 51.17L1069.74 50.56ZM1140.46 101.63L1146.76 102.39L1146.76 103L1128.14 103L1128.14 102.39L1134.38 101.63L1127.23 82.18L1108.84 82.18L1102.53 98.97Q1102.23 99.81 1102.23 100.34L1102.23 100.34Q1102.23 101.18 1102.72 101.52Q1103.22 101.86 1104.51 102.01L1104.51 102.01L1109.14 102.39L1109.14 103L1092.96 103L1092.96 102.39L1097.21 102.01Q1099.11 101.86 1099.91 101.25Q1100.71 100.64 1101.32 98.97L1101.32 98.97L1119.94 49.34L1121.30 49.34L1140.46 101.63ZM1109.30 80.96L1126.78 80.96L1118.26 57.78L1117.96 57.78L1109.30 80.96ZM1161.40 51.78L1161.40 101.78L1155.16 102.39L1155.16 103L1192.40 103L1194.30 86.43L1193.39 86.28L1188.22 99.28Q1187.54 100.95 1186.70 101.52Q1185.87 102.09 1184.04 102.09L1184.04 102.09L1167.25 102.09L1167.25 51.78L1173.86 51.17L1173.86 50.56L1155.16 50.56L1155.16 51.17L1161.40 51.78Z"/><path d="M343.17 142.06Q345.26 142.06 347.00 143.21Q348.74 144.36 349.73 146.34Q350.73 148.32 350.73 150.72L350.73 150.72Q350.73 153.12 349.73 155.10Q348.74 157.08 347.00 158.23Q345.26 159.38 343.17 159.38L343.17 159.38Q341.08 159.38 339.34 158.23Q337.60 157.08 336.60 155.10Q335.61 153.12 335.61 150.72L335.61 150.72Q335.61 148.32 336.60 146.34Q337.60 144.36 339.34 143.21Q341.08 142.06 343.17 142.06L343.17 142.06ZM337.91 150.72Q337.91 154.73 339.28 156.90Q340.65 159.07 343.17 159.07L343.17 159.07Q345.69 159.07 347.06 156.90Q348.42 154.73 348.42 150.72L348.42 150.72Q348.42 146.71 347.06 144.53Q345.69 142.34 343.17 142.34L343.17 142.34Q340.65 142.34 339.28 144.53Q337.91 146.71 337.91 150.72L337.91 150.72ZM374.17 158.81L374.50 158.81L374.50 159L372.03 159Q371.46 159 371.17 158.83Q370.88 158.66 370.57 158.18L370.57 158.18L366.90 152.26Q366.56 151.70 366.33 151.57Q366.10 151.44 365.53 151.44L365.53 151.44L363.75 151.44L363.75 158.62L365.84 158.81L365.84 159L359.94 159L359.94 158.81L361.90 158.62L361.90 142.82L359.94 142.63L359.94 142.44L366.01 142.44Q368.84 142.44 370.33 143.58Q371.82 144.72 371.82 146.88L371.82 146.88Q371.82 148.56 370.90 149.64Q369.99 150.72 368.26 151.13L368.26 151.13L368.29 151.13L372.68 157.99Q372.99 158.47 373.29 158.64Q373.59 158.81 374.17 158.81L374.17 158.81ZM365.94 142.73L363.75 142.73L363.75 151.08L365.94 151.08Q367.86 151.08 368.78 150.06Q369.70 149.04 369.70 146.93L369.70 146.93Q369.70 144.79 368.77 143.76Q367.83 142.73 365.94 142.73L365.94 142.73ZM382.46 162.74Q382.99 162.24 383.33 161.54Q383.66 160.85 383.66 160.25L383.66 160.25Q383.66 159.77 383.48 159.50Q383.30 159.24 382.92 158.95L382.92 158.95Q382.56 158.64 382.40 158.44Q382.25 158.23 382.25 157.85L382.25 157.85Q382.25 157.32 382.57 156.97Q382.90 156.62 383.38 156.62L383.38 156.62Q384.02 156.62 384.42 157.12Q384.82 157.61 384.82 158.52L384.82 158.52Q384.82 159.79 384.24 160.90Q383.66 162 382.56 162.86L382.56 162.86L382.46 162.74ZM413.02 142.70L413.02 158.62L410.43 158.81L410.43 159L417.46 159L417.46 158.81L414.87 158.62L414.87 142.70L418.38 142.70Q418.95 142.70 419.20 142.88Q419.46 143.06 419.67 143.62L419.67 143.62L421.16 147.31L421.35 147.26L420.82 142.06L420.68 142.06Q420.15 142.30 419.78 142.37Q419.41 142.44 418.83 142.44L418.83 142.44L409.59 142.44Q409.02 142.44 408.64 142.37Q408.27 142.30 407.74 142.06L407.74 142.06L407.60 142.06L406.66 147.26L406.86 147.31L408.51 143.62Q408.75 143.06 409.02 142.88Q409.28 142.70 409.86 142.70L409.86 142.70L413.02 142.70ZM445.63 142.63L443.66 142.82L443.66 158.62L445.63 158.81L445.63 159L439.73 159L439.73 158.81L441.82 158.62L441.82 150.48L433.82 150.48L433.82 158.62L435.91 158.81L435.91 159L430.01 159L430.01 158.81L431.98 158.62L431.98 142.82L430.01 142.63L430.01 142.44L435.91 142.44L435.91 142.63L433.82 142.82L433.82 150.10L441.82 150.10L441.82 142.82L439.73 142.63L439.73 142.44L445.63 142.44L445.63 142.63ZM466.65 153.94L466.91 153.96L466.31 159L454.55 159L454.55 158.81L456.52 158.62L456.52 142.82L454.55 142.63L454.55 142.44L466.34 142.44L466.67 146.95L466.43 146.98L465.09 143.62Q464.87 143.06 464.62 142.90Q464.37 142.73 463.79 142.73L463.79 142.73L458.37 142.73L458.37 150.10L461.92 150.10Q462.50 150.10 462.74 149.90Q462.98 149.71 463.07 149.16L463.07 149.16L463.48 147.22L463.77 147.22L463.77 153.36L463.48 153.36L463.07 151.42Q462.98 150.86 462.74 150.67Q462.50 150.48 461.92 150.48L461.92 150.48L458.37 150.48L458.37 158.71L463.74 158.71Q464.32 158.71 464.58 158.53Q464.85 158.35 465.06 157.82L465.06 157.82L466.65 153.94ZM500.76 151.10L500.76 157.15Q500.16 158.02 499.13 158.56Q498.10 159.10 496.90 159.10L496.90 159.10Q494.38 159.10 493.01 156.91Q491.64 154.73 491.64 150.72L491.64 150.72Q491.64 146.71 493.01 144.53Q494.38 142.34 496.92 142.34L496.92 142.34Q498.29 142.34 499.40 142.98Q500.52 143.62 501.24 144.79L501.24 144.79Q501.96 145.99 502.30 147.84L502.30 147.84L502.63 147.74L502.39 142.34L502.08 142.34L501.50 143.50Q500.14 142.75 499.02 142.40Q497.90 142.06 496.85 142.06L496.85 142.06Q494.78 142.06 493.06 143.21Q491.33 144.36 490.33 146.35Q489.34 148.34 489.34 150.72L489.34 150.72Q489.34 153.12 490.33 155.10Q491.33 157.08 493.07 158.23Q494.81 159.38 496.90 159.38L496.90 159.38Q498.14 159.38 499.80 158.90Q501.46 158.42 502.61 157.37L502.61 157.37L502.61 151.10L504.58 150.91L504.58 150.72L499.03 150.72L499.03 150.91L500.76 151.10ZM525.02 153.94L525.28 153.96L524.68 159L512.92 159L512.92 158.81L514.89 158.62L514.89 142.82L512.92 142.63L512.92 142.44L524.70 142.44L525.04 146.95L524.80 146.98L523.46 143.62Q523.24 143.06 522.99 142.90Q522.74 142.73 522.16 142.73L522.16 142.73L516.74 142.73L516.74 150.10L520.29 150.10Q520.86 150.10 521.10 149.90Q521.34 149.71 521.44 149.16L521.44 149.16L521.85 147.22L522.14 147.22L522.14 153.36L521.85 153.36L521.44 151.42Q521.34 150.86 521.10 150.67Q520.86 150.48 520.29 150.48L520.29 150.48L516.74 150.48L516.74 158.71L522.11 158.71Q522.69 158.71 522.95 158.53Q523.22 158.35 523.43 157.82L523.43 157.82L525.02 153.94ZM545.19 142.44L550.93 142.44L550.93 142.63L549.20 142.82Q548.62 142.90 548.43 143.11Q548.24 143.33 548.24 143.90L548.24 143.90L548.24 159.38L548 159.38L537.22 144.10L537.13 144.10L537.13 157.54Q537.13 158.11 537.27 158.34Q537.42 158.57 537.85 158.62L537.85 158.62L539.55 158.81L539.55 159L534.30 159L534.30 158.81L536.02 158.62Q536.46 158.57 536.60 158.34Q536.74 158.11 536.74 157.54L536.74 157.54L536.74 143.57L536.65 143.42Q536.31 142.94 536.01 142.79Q535.71 142.63 535.14 142.63L535.14 142.63L534.73 142.63L534.73 142.44L538.30 142.44L547.76 155.69L547.86 155.69L547.86 143.90Q547.86 143.33 547.71 143.09Q547.57 142.85 547.14 142.82L547.14 142.82L545.19 142.63L545.19 142.44ZM571.37 153.94L571.63 153.96L571.03 159L559.27 159L559.27 158.81L561.24 158.62L561.24 142.82L559.27 142.63L559.27 142.44L571.06 142.44L571.39 146.95L571.15 146.98L569.81 143.62Q569.59 143.06 569.34 142.90Q569.09 142.73 568.51 142.73L568.51 142.73L563.09 142.73L563.09 150.10L566.64 150.10Q567.22 150.10 567.46 149.90Q567.70 149.71 567.79 149.16L567.79 149.16L568.20 147.22L568.49 147.22L568.49 153.36L568.20 153.36L567.79 151.42Q567.70 150.86 567.46 150.67Q567.22 150.48 566.64 150.48L566.64 150.48L563.09 150.48L563.09 158.71L568.46 158.71Q569.04 158.71 569.30 158.53Q569.57 158.35 569.78 157.82L569.78 157.82L571.37 153.94ZM595.24 158.81L595.58 158.81L595.58 159L593.10 159Q592.53 159 592.24 158.83Q591.95 158.66 591.64 158.18L591.64 158.18L587.97 152.26Q587.63 151.70 587.40 151.57Q587.18 151.44 586.60 151.44L586.60 151.44L584.82 151.44L584.82 158.62L586.91 158.81L586.91 159L581.01 159L581.01 158.81L582.98 158.62L582.98 142.82L581.01 142.63L581.01 142.44L587.08 142.44Q589.91 142.44 591.40 143.58Q592.89 144.72 592.89 146.88L592.89 146.88Q592.89 148.56 591.98 149.64Q591.06 150.72 589.34 151.13L589.34 151.13L589.36 151.13L593.75 157.99Q594.06 158.47 594.36 158.64Q594.66 158.81 595.24 158.81L595.24 158.81ZM587.01 142.73L584.82 142.73L584.82 151.08L587.01 151.08Q588.93 151.08 589.85 150.06Q590.78 149.04 590.78 146.93L590.78 146.93Q590.78 144.79 589.84 143.76Q588.90 142.73 587.01 142.73L587.01 142.73ZM615.94 158.57L617.94 158.81L617.94 159L612.06 159L612.06 158.81L614.02 158.57L611.77 152.42L605.96 152.42L603.97 157.73Q603.87 157.99 603.87 158.16L603.87 158.16Q603.87 158.42 604.03 158.53Q604.18 158.64 604.59 158.69L604.59 158.69L606.06 158.81L606.06 159L600.94 159L600.94 158.81L602.29 158.69Q602.89 158.64 603.14 158.45Q603.39 158.26 603.58 157.73L603.58 157.73L609.46 142.06L609.90 142.06L615.94 158.57ZM606.10 152.04L611.62 152.04L608.94 144.72L608.84 144.72L606.10 152.04ZM627.50 142.82L627.50 158.62L625.54 158.81L625.54 159L637.30 159L637.90 153.77L637.61 153.72L635.98 157.82Q635.76 158.35 635.50 158.53Q635.23 158.71 634.66 158.71L634.66 158.71L629.35 158.71L629.35 142.82L631.44 142.63L631.44 142.44L625.54 142.44L625.54 142.63L627.50 142.82ZM672.49 158.57L674.48 158.81L674.48 159L668.60 159L668.60 158.81L670.57 158.57L668.31 152.42L662.50 152.42L660.51 157.73Q660.42 157.99 660.42 158.16L660.42 158.16Q660.42 158.42 660.57 158.53Q660.73 158.64 661.14 158.69L661.14 158.69L662.60 158.81L662.60 159L657.49 159L657.49 158.81L658.83 158.69Q659.43 158.64 659.68 158.45Q659.94 158.26 660.13 157.73L660.13 157.73L666.01 142.06L666.44 142.06L672.49 158.57ZM662.65 152.04L668.17 152.04L665.48 144.72L665.38 144.72L662.65 152.04ZM693.58 143.71Q695.04 144.74 695.86 146.54Q696.67 148.34 696.67 150.62L696.67 150.62Q696.67 152.90 695.86 154.78Q695.04 156.65 693.58 157.70L693.58 157.70Q692.64 158.38 691.43 158.69Q690.22 159 688.46 159L688.46 159L682.08 159L682.08 158.81L684.05 158.62L684.05 142.82L682.08 142.63L682.08 142.44L688.46 142.44Q691.73 142.44 693.58 143.71L693.58 143.71ZM692.71 157.30Q693.48 156.31 693.92 154.50Q694.37 152.69 694.37 150.50L694.37 150.50Q694.37 148.37 693.95 146.74Q693.53 145.10 692.71 144.14L692.71 144.14Q692.04 143.35 691.06 143.04Q690.07 142.73 688.25 142.73L688.25 142.73L685.90 142.73L685.90 158.71L688.25 158.71Q690.17 158.71 691.13 158.40Q692.09 158.09 692.71 157.30L692.71 157.30ZM718 142.75Q718.38 142.78 718.55 142.90Q718.72 143.02 718.72 143.26L718.72 143.26Q718.72 143.47 718.62 143.71L718.62 143.71L713.75 156.72L713.66 156.72L708.57 142.82L710.66 142.63L710.66 142.44L704.66 142.44L704.66 142.63L706.62 142.82L712.70 159.38L713.13 159.38L719.01 143.71Q719.20 143.16 719.45 142.98Q719.70 142.80 720.30 142.75L720.30 142.75L721.65 142.63L721.65 142.44L716.54 142.44L716.54 142.63L718 142.75ZM740.86 153.94L741.13 153.96L740.53 159L728.77 159L728.77 158.81L730.74 158.62L730.74 142.82L728.77 142.63L728.77 142.44L740.55 142.44L740.89 146.95L740.65 146.98L739.30 143.62Q739.09 143.06 738.84 142.90Q738.58 142.73 738.01 142.73L738.01 142.73L732.58 142.73L732.58 150.10L736.14 150.10Q736.71 150.10 736.95 149.90Q737.19 149.71 737.29 149.16L737.29 149.16L737.70 147.22L737.98 147.22L737.98 153.36L737.70 153.36L737.29 151.42Q737.19 150.86 736.95 150.67Q736.71 150.48 736.14 150.48L736.14 150.48L732.58 150.48L732.58 158.71L737.96 158.71Q738.54 158.71 738.80 158.53Q739.06 158.35 739.28 157.82L739.28 157.82L740.86 153.94ZM764.74 158.81L765.07 158.81L765.07 159L762.60 159Q762.02 159 761.74 158.83Q761.45 158.66 761.14 158.18L761.14 158.18L757.46 152.26Q757.13 151.70 756.90 151.57Q756.67 151.44 756.10 151.44L756.10 151.44L754.32 151.44L754.32 158.62L756.41 158.81L756.41 159L750.50 159L750.50 158.81L752.47 158.62L752.47 142.82L750.50 142.63L750.50 142.44L756.58 142.44Q759.41 142.44 760.90 143.58Q762.38 144.72 762.38 146.88L762.38 146.88Q762.38 148.56 761.47 149.64Q760.56 150.72 758.83 151.13L758.83 151.13L758.86 151.13L763.25 157.99Q763.56 158.47 763.86 158.64Q764.16 158.81 764.74 158.81L764.74 158.81ZM756.50 142.73L754.32 142.73L754.32 151.08L756.50 151.08Q758.42 151.08 759.35 150.06Q760.27 149.04 760.27 146.93L760.27 146.93Q760.27 144.79 759.34 143.76Q758.40 142.73 756.50 142.73L756.50 142.73ZM778.22 142.70L778.22 158.62L775.62 158.81L775.62 159L782.66 159L782.66 158.81L780.06 158.62L780.06 142.70L783.57 142.70Q784.14 142.70 784.40 142.88Q784.65 143.06 784.86 143.62L784.86 143.62L786.35 147.31L786.54 147.26L786.02 142.06L785.87 142.06Q785.34 142.30 784.97 142.37Q784.60 142.44 784.02 142.44L784.02 142.44L774.78 142.44Q774.21 142.44 773.84 142.37Q773.46 142.30 772.94 142.06L772.94 142.06L772.79 142.06L771.86 147.26L772.05 147.31L773.70 143.62Q773.94 143.06 774.21 142.88Q774.47 142.70 775.05 142.70L775.05 142.70L778.22 142.70ZM795.20 142.63L795.20 142.44L800.98 142.44L800.98 142.63L799.02 142.82L799.02 158.62L800.98 158.81L800.98 159L795.20 159L795.20 158.81L797.17 158.62L797.17 142.82L795.20 142.63ZM815.57 159.38Q817.06 159.38 818.24 158.76Q819.43 158.14 820.10 157.04Q820.78 155.95 820.78 154.56L820.78 154.56Q820.78 153.31 820.24 152.46Q819.70 151.61 818.82 151.03Q817.94 150.46 816.50 149.81L816.50 149.81Q814.90 149.06 814.02 148.54Q813.14 148.01 812.65 147.29Q812.16 146.57 812.16 145.51L812.16 145.51Q812.16 144.05 813.05 143.20Q813.94 142.34 815.42 142.34L815.42 142.34Q817.90 142.34 819.10 144.82L819.10 144.82Q819.70 146.04 820.08 147.65L820.08 147.65L820.32 147.58L820.08 142.34L819.77 142.34L819.19 143.50Q818.21 142.73 817.36 142.39Q816.50 142.06 815.52 142.06L815.52 142.06Q814.10 142.06 812.99 142.64Q811.87 143.23 811.24 144.28Q810.60 145.32 810.60 146.64L810.60 146.64Q810.60 147.94 811.19 148.84Q811.78 149.74 812.66 150.30Q813.55 150.86 814.87 151.44L814.87 151.44Q816.48 152.14 817.37 152.66Q818.26 153.19 818.77 153.94Q819.29 154.68 819.29 155.76L819.29 155.76Q819.29 157.30 818.32 158.20Q817.34 159.10 815.62 159.10L815.62 159.10Q813.60 159.10 812.38 157.73L812.38 157.73Q811.78 157.06 811.40 156.14Q811.03 155.23 810.67 153.60L810.67 153.60L810.46 153.65L810.77 159.38L811.08 159.38L811.58 158.06Q812.33 158.69 813.38 159.04Q814.44 159.38 815.57 159.38L815.57 159.38ZM842.22 153.94L842.49 153.96L841.89 159L830.13 159L830.13 158.81L832.10 158.62L832.10 142.82L830.13 142.63L830.13 142.44L841.91 142.44L842.25 146.95L842.01 146.98L840.66 143.62Q840.45 143.06 840.20 142.90Q839.94 142.73 839.37 142.73L839.37 142.73L833.94 142.73L833.94 150.10L837.50 150.10Q838.07 150.10 838.31 149.90Q838.55 149.71 838.65 149.16L838.65 149.16L839.06 147.22L839.34 147.22L839.34 153.36L839.06 153.36L838.65 151.42Q838.55 150.86 838.31 150.67Q838.07 150.48 837.50 150.48L837.50 150.48L833.94 150.48L833.94 158.71L839.32 158.71Q839.90 158.71 840.16 158.53Q840.42 158.35 840.64 157.82L840.64 157.82L842.22 153.94ZM866.10 158.81L866.43 158.81L866.43 159L863.96 159Q863.38 159 863.10 158.83Q862.81 158.66 862.50 158.18L862.50 158.18L858.82 152.26Q858.49 151.70 858.26 151.57Q858.03 151.44 857.46 151.44L857.46 151.44L855.68 151.44L855.68 158.62L857.77 158.81L857.77 159L851.86 159L851.86 158.81L853.83 158.62L853.83 142.82L851.86 142.63L851.86 142.44L857.94 142.44Q860.77 142.44 862.26 143.58Q863.74 144.72 863.74 146.88L863.74 146.88Q863.74 148.56 862.83 149.64Q861.92 150.72 860.19 151.13L860.19 151.13L860.22 151.13L864.61 157.99Q864.92 158.47 865.22 158.64Q865.52 158.81 866.10 158.81L866.10 158.81ZM857.86 142.73L855.68 142.73L855.68 151.08L857.86 151.08Q859.78 151.08 860.71 150.06Q861.63 149.04 861.63 146.93L861.63 146.93Q861.63 144.79 860.70 143.76Q859.76 142.73 857.86 142.73L857.86 142.73Z"/></g><g fill="#28241f" stroke="#28241f" stroke-width="1.5"><line x1="112" y1="151" x2="340" y2="151"/><path d="M356 151l8-3v6zM372 151l-8-3v6z"/><line x1="388" y1="151" x2="421" y2="151"/><line x1="779" y1="151" x2="812" y2="151"/><path d="M828 151l8-3v6zM844 151l-8-3v6z"/><line x1="860" y1="151" x2="1088" y2="151"/></g></svg>
