<svg xmlns="http://www.w3.org/2000/svg" viewBox="0 0 512 512" data-x-avatar="federalist-reader" data-monogram="F">
  <circle cx="256" cy="256" r="256" fill="#e7deca"/>
  <circle cx="256" cy="256" r="222" fill="none" stroke="#2a2722" stroke-width="12"/>
  <circle cx="256" cy="256" r="203" fill="none" stroke="#2a2722" stroke-width="4"/>
  <path d="M320.64 157.33L325.21 214.24L322.92 214.53L305.76 171.34Q303.19 164.77 300.19 162.76Q297.18 160.76 290.32 160.76L290.32 160.76L232.26 160.76L232.26 248.56L273.73 248.56Q280.60 248.56 283.46 246.28Q286.32 243.99 287.46 237.41L287.46 237.41L292.32 214.24L295.75 214.24L295.75 287.46L292.32 287.46L287.46 264.29Q286.32 257.72 283.46 255.43Q280.60 253.14 273.73 253.14L273.73 253.14L232.26 253.14L232.26 350.09L260.29 352.38L260.29 354.67L186.79 354.67L186.79 352.38L210.24 350.09L210.24 161.91L186.79 159.62L186.79 157.33L320.64 157.33Z" fill="#672b28"/>
  <path d="M256 99l13 13-13 13-13-13zM256 387l13 13-13 13-13-13z" fill="#672b28"/>
</svg>
